<svg width="7" height="7" viewBox="0 0 7 7" fill="none" xmlns="http://www.w3.org/2000/svg">
<path fill-rule="evenodd" clip-rule="evenodd" d="M6.5 3.5C6.5 3.59946 6.46049 3.69484 6.39016 3.76516C6.31984 3.83549 6.22446 3.875 6.125 3.875L1.78025 3.875L3.3905 5.4845C3.46092 5.55491 3.50047 5.65042 3.50047 5.75C3.50047 5.84958 3.46092 5.94508 3.3905 6.0155C3.32009 6.08591 3.22458 6.12547 3.125 6.12547C3.02542 6.12547 2.92991 6.08591 2.8595 6.0155L0.6095 3.7655C0.574577 3.73066 0.546871 3.68928 0.527966 3.64372C0.509061 3.59817 0.49933 3.54932 0.49933 3.5C0.49933 3.45067 0.509061 3.40183 0.527966 3.35627C0.546871 3.31072 0.574577 3.26933 0.6095 3.2345L2.8595 0.984499C2.92991 0.914084 3.02542 0.874526 3.125 0.874526C3.22458 0.874526 3.32009 0.914084 3.3905 0.984499C3.46092 1.05491 3.50047 1.15042 3.50047 1.25C3.50047 1.34958 3.46092 1.44508 3.3905 1.5155L1.78025 3.125L6.125 3.125C6.22446 3.125 6.31984 3.16451 6.39016 3.23483C6.46049 3.30516 6.5 3.40054 6.5 3.5Z" fill="#D1D5DB"/>
</svg>