<svg width="7" height="7" viewBox="0 0 7 7" fill="none" xmlns="http://www.w3.org/2000/svg">
<path fill-rule="evenodd" clip-rule="evenodd" d="M0.5 3.5C0.5 3.40054 0.539509 3.30516 0.609835 3.23484C0.680161 3.16451 0.775544 3.125 0.875 3.125H5.21975L3.6095 1.5155C3.53908 1.44509 3.49953 1.34958 3.49953 1.25C3.49953 1.15042 3.53908 1.05492 3.6095 0.984501C3.67991 0.914086 3.77542 0.874527 3.875 0.874527C3.97458 0.874527 4.07009 0.914086 4.1405 0.984501L6.3905 3.2345C6.42542 3.26934 6.45313 3.31072 6.47203 3.35628C6.49094 3.40183 6.50067 3.45068 6.50067 3.5C6.50067 3.54933 6.49094 3.59817 6.47203 3.64373C6.45313 3.68928 6.42542 3.73067 6.3905 3.7655L4.1405 6.0155C4.07009 6.08592 3.97458 6.12547 3.875 6.12547C3.77542 6.12547 3.67991 6.08592 3.6095 6.0155C3.53908 5.94509 3.49953 5.84958 3.49953 5.75C3.49953 5.65042 3.53908 5.55492 3.6095 5.4845L5.21975 3.875H0.875C0.775544 3.875 0.680161 3.83549 0.609835 3.76517C0.539509 3.69484 0.5 3.59946 0.5 3.5Z" fill="#D1D5DB"/>
</svg>